<svg width="512" height="512" viewBox="0 0 512 512" fill="none" xmlns="http://www.w3.org/2000/svg">
<path d="M487.563 345.076C487.435 343.746 484.281 313.712 463.926 293.638C475.812 278.852 480.493 262.874 480.763 261.926L482.903 254.406L475.295 252.596C473.971 252.279 443.406 245.246 417.481 259.022L419.489 231.763C427.14 222.801 431.295 214.657 431.512 214.227L434.731 207.844L428.503 204.334C427.91 203.999 416.61 197.721 401.559 195.564C407.337 183.131 409.296 172.337 409.398 171.76L410.71 164.332L403.272 163.075C402.645 162.969 394.966 161.74 384.61 162.688L389.09 150.87C399.101 154.098 408.247 155.739 416.47 155.739C427.959 155.738 437.672 152.587 445.513 146.287C456.797 137.221 463.445 122.3 465.273 101.936C466.572 87.4645 464.862 75.5028 464.789 75.0007L463.492 66.1265L449.443 70.8571C443.155 51.6073 429.832 36.583 429.192 35.8692L426.656 33.0403L422.874 33.4176C421.891 33.5154 401.243 35.6906 383.302 45.8285L375.887 32.9185L369.033 38.7032C368.645 39.0306 359.436 46.8537 350.816 58.5499C338.686 75.0077 333.773 90.587 336.212 104.855C339.108 121.791 352.179 135.461 375.091 145.562L367.231 166.296C363.49 167.562 359.706 169.196 356.009 171.322C355.661 165.962 355.074 162.494 355.031 162.241L353.968 156.075L347.711 156.027C347.212 156.035 338.514 156.004 327.677 158.849C329.071 150.917 329.203 145.342 329.21 144.991L329.365 137.165L321.54 137.359C320.484 137.385 298.585 138.1 279.973 151.637C274.937 142.594 269.09 136.022 268.765 135.662L262.684 128.882L253.198 141.493V123.494C274.703 122.402 290.452 116.274 300.033 105.199C309.032 94.7985 312.31 80.6816 309.776 63.2446L294.959 65.3968C296.839 78.3408 294.737 88.4358 288.71 95.4024C286.979 97.4029 284.887 99.1667 282.474 100.72C284.987 95.2906 286.375 89.1366 286.375 82.5243C286.375 72.4512 280.235 62.0936 273.034 53.4101L287.888 41.2207C289.142 44.1805 290.53 47.7841 291.776 51.768L306.066 47.2959C302.227 35.0277 297.295 26.0946 297.086 25.7203L292.728 17.8812L281.267 27.2845C268.565 11.5135 250.78 2.18711 249.929 1.7459L246.555 0L243.153 1.69299C242.268 2.13321 223.732 11.4846 210.549 27.3244L199.039 17.8812L194.681 25.7203C193.68 27.5211 170.352 70.1613 187.438 99.2097C196.148 114.019 213.216 122.17 238.222 123.495V144.069C232.207 137.245 223.698 130.215 212.005 125.69L207.013 123.757L203.57 127.855C203.159 128.345 196.545 136.313 191.536 147.731C180.959 133.452 167.572 126.987 166.823 126.633L161.117 123.938L157.494 129.106C157.248 129.457 151.394 137.829 145.77 147.656C143.917 150.893 142.379 153.788 141.09 156.404L130.665 134.835C150.206 124.484 161.236 111.322 163.502 95.6011C165.567 81.2746 160.247 65.83 147.691 49.6947C138.767 38.2301 129.356 30.6505 128.96 30.3331L121.957 24.73L114.913 37.7739C97.1813 27.9903 77.1898 26.0966 76.2355 26.0108L72.4502 25.6734L69.9437 28.5283C69.2919 29.271 55.6801 44.9481 49.4791 64.6012L35.2504 60.221L34.1863 69.1271C34.1254 69.6302 32.7308 81.6329 34.4079 96.0643C36.7677 116.373 43.8042 131.116 55.3217 139.882C62.9501 145.689 72.1977 148.593 82.9935 148.592C91.6651 148.592 101.339 146.711 111.964 142.963L112.032 143.123L117.047 141.07L128.519 164.803C113.349 162.97 99.4912 167.512 98.6846 167.784L92.0424 170.016L93.8312 176.792C94.0578 177.65 96.8489 188.125 101.285 200.729C77.2268 189.021 50.1938 193.742 48.944 193.97L41.2507 195.373L42.9866 202.997C43.1873 203.878 46.4215 217.593 55.5084 231.741C53.3073 233.296 51.2369 234.955 49.3164 236.711C26.7525 257.332 24.2978 290.426 24.204 291.824L23.6829 299.626L31.501 299.808C31.5969 299.81 31.8374 299.815 32.2128 299.815C37.3616 299.815 67.6168 298.967 88.6485 279.747C93.5587 275.259 97.8621 269.827 101.508 263.577C101.75 263.626 101.994 263.68 102.235 263.728L110.274 372.834C106.14 374.288 102.012 376.203 98.0667 378.737C75.5298 393.213 68.5292 421.393 68.2417 422.586L66.412 430.188L74.0863 431.686C74.6064 431.788 80.2264 432.843 88.2621 432.843C95.6301 432.843 105.028 431.947 114.383 428.62L120.526 511.999H398.841L403.884 443.559H417.372C433.868 443.559 447.288 430.138 447.288 413.643C447.288 397.147 433.868 383.727 417.372 383.727H408.292L412.695 323.977C415.741 328.114 419.117 331.782 422.789 334.94C442.522 351.915 469.489 353.329 477.925 353.329C479.395 353.329 480.304 353.285 480.512 353.274L488.321 352.858L487.563 345.076ZM372.872 121.196C370.046 115.016 369.945 107.774 372.588 100.804C376.222 91.2169 395.234 82.2838 409.358 77.7149C411.216 81.043 413.714 85.8295 415.978 91.2099C421.134 103.457 422.787 113.332 420.631 119.015C417.99 125.984 413.114 131.341 406.902 134.094C400.844 136.778 393.892 136.886 387.327 134.399C380.76 131.912 375.627 127.221 372.872 121.196ZM450.331 100.909C449.308 111.914 446.011 126.699 436.113 134.633C432.848 137.25 428.966 139.023 424.492 139.967C428.861 135.709 432.329 130.402 434.634 124.323C438.204 114.904 436.133 103.043 432.477 92.3698L450.691 86.2377C450.848 90.3145 450.839 95.4364 450.331 100.909ZM420.51 48.8751C424.29 53.7215 431.459 63.9124 435.245 75.6396L426.705 78.5154C423.259 71.4171 420.021 66.2093 419.153 64.8497L416.208 60.2359L410.919 61.6424C409.293 62.0747 403.056 63.8116 395.381 66.8622L390.762 58.8205C401.694 52.6604 414.306 49.9193 420.51 48.8751ZM372.139 56.4607L381.751 73.1969C371.725 78.6682 362.153 86.087 358.587 95.4983C356.327 101.462 355.399 107.609 355.788 113.583C353.264 110.049 351.653 106.307 350.974 102.361C347.948 84.7743 363.022 65.9827 372.139 56.4607ZM463.291 265.914C459.281 274.981 451.077 289.484 437.123 297.661C423.239 305.794 406.518 305.87 396.621 304.944C400.63 295.877 408.834 281.373 422.789 273.196C436.671 265.062 453.389 264.991 463.291 265.914ZM397.103 331.82H246.92L224.509 304.806H380.528C379.668 307.149 379.225 308.659 379.148 308.93L377.008 316.451L384.615 318.26C385.142 318.386 390.312 319.573 397.966 320.092L397.103 331.82ZM392.517 177.323H392.542C390.776 183.035 387.768 190.934 383.019 198.344L375.24 210.486L389.646 209.863C399.172 209.454 408.131 211.984 414.043 214.219C411.732 217.634 408.484 221.926 404.412 226.071H360.584L378.529 178.729C383.759 177.633 388.656 177.323 392.517 177.323ZM263.246 153.04C265.743 156.71 268.529 161.412 270.379 166.353L274.52 177.408L282.754 168.949C292.285 159.157 305.048 155.119 313.371 153.462C312.762 157.607 311.728 162.856 309.981 168.387L304.73 185.003L320.398 177.374C327.872 173.734 335.682 172.172 341.006 171.502C341.282 175.313 341.446 180.437 341.051 186.058L339.61 206.544L353.897 191.792C355.35 190.292 356.863 188.922 358.395 187.72C358.719 187.466 359.054 187.238 359.382 186.996L344.571 226.069H331.372C329.48 223.06 327.318 220.127 324.835 217.351C304.46 194.564 271.394 191.75 269.996 191.641L262.2 191.036L261.933 198.852C261.906 199.682 261.583 211.686 265.573 226.07H253.193V166.401L263.246 153.04ZM328.843 265.586C319.16 263.454 303.318 258.288 292.537 246.232C281.82 234.248 278.432 217.887 277.371 208.002C287.08 210.158 302.959 215.348 313.674 227.332C324.397 239.325 327.783 255.7 328.843 265.586ZM220.017 82.5263C220.017 72.2735 234.628 57.1824 246.217 47.9039C249.134 50.3575 253.166 53.9481 257.191 58.1746C266.353 67.7995 271.398 76.4471 271.398 82.5263C271.398 97.7023 260.594 108.717 245.707 108.717C230.821 108.717 220.017 97.7023 220.017 82.5263ZM246.414 16.9878C251.674 20.1951 262.007 27.2086 269.684 36.7886L262.72 42.5025C256.982 37.0861 252.109 33.3657 250.815 32.4014L246.426 29.1312L241.978 32.3206C240.61 33.3018 235.395 37.136 229.299 42.7091L222.129 36.8265C230.167 27.1967 240.981 20.1652 246.414 16.9878ZM200.359 91.6431C193.915 80.7155 196.074 65.7222 199.018 55.0691C200.483 49.7715 202.289 44.9781 203.881 41.2207L218.802 53.463C211.366 62.1336 205.046 72.4622 205.046 82.5263C205.046 89.0078 206.385 95.0461 208.804 100.396C205.211 97.9918 202.384 95.079 200.359 91.6431ZM165.837 143.491C172.03 147.82 181.897 156.469 186.596 169.99L197.503 201.367L201.111 168.345C202.282 157.621 208.018 147.555 211.754 141.987C229.966 151.488 236.498 169.002 236.557 169.165L238.221 173.887V226.072H193.072V220.686C193.072 203.29 178.919 189.138 161.524 189.138C160.011 189.138 158.523 189.252 157.066 189.458L150.11 175.068C150.196 170.554 157.026 156.968 165.837 143.491ZM93.2732 126.817C86.9914 124.225 81.9763 119 79.1523 112.103C75.2682 102.614 83.0744 83.1123 90.2845 70.1353C93.9141 71.3003 99.0051 73.0971 104.331 75.4838C116.455 80.9202 124.401 87.0124 126.704 92.6384C129.528 99.5361 129.616 106.778 126.953 113.03C124.357 119.126 119.348 123.949 112.849 126.609C106.351 129.269 99.3984 129.341 93.2732 126.817ZM136.063 59.1379C142.824 67.8823 150.501 80.9401 148.677 93.4938C148.075 97.6385 146.449 101.587 143.819 105.333C144.111 99.2356 143.026 92.9867 140.561 86.9664C136.745 77.644 127.139 70.3839 117.185 65.0753L126.318 48.1644C129.213 51.0393 132.701 54.7916 136.063 59.1379ZM78.755 41.4473C84.8382 42.4236 97.0575 45 107.791 50.9574L103.511 58.8833C96.1491 56.0444 90.2296 54.4472 88.6674 54.0439L83.3668 52.6804L80.459 57.3181C79.5646 58.7436 76.1896 64.2678 72.6609 71.7355L63.7966 69.0073C67.5859 57.0506 74.9308 46.4474 78.755 41.4473ZM48.5707 79.9888L67.0159 85.6667C63.4183 96.5075 61.4817 108.461 65.295 117.775C67.7087 123.672 71.2214 128.796 75.5777 132.897C71.3282 132.034 67.5969 130.405 64.4125 127.987C50.2018 117.193 48.402 93.1694 48.5707 79.9888ZM137.13 182.618L143.147 195.065C135.179 200.797 129.976 210.141 129.976 220.685V226.071H129.085C128.676 225.445 128.253 224.818 127.821 224.192C120.245 211.36 113.646 191.14 110.417 180.34C117.41 179.096 128.375 178.262 137.13 182.618ZM100.276 217.343C106.632 221.538 111.636 227.104 115.533 232.786C116.306 234.065 117.092 235.285 117.888 236.435C120.968 241.533 123.19 246.513 124.697 250.463C114.793 250.867 98.1546 249.914 84.6576 241.006C71.2274 232.142 63.7787 217.17 60.236 207.885C70.1433 207.485 86.7798 208.437 100.276 217.343ZM78.5434 268.695C66.6655 279.55 50.3256 283.112 40.4561 284.278C42.4835 274.572 47.4776 258.675 59.4164 247.765C61.0345 246.285 62.8134 244.896 64.714 243.591C68.115 247.198 71.9881 250.586 76.4102 253.504C79.7563 255.713 83.2291 257.514 86.7349 259.011C84.2902 262.702 81.5521 265.945 78.5434 268.695ZM121.054 265.511C129.548 265.511 135.423 264.483 135.99 264.379L143.684 262.977L141.948 255.352C141.819 254.786 140.435 248.917 137.057 241.044H144.948V220.684C144.948 211.545 152.384 204.109 161.523 204.109C170.662 204.109 178.097 211.545 178.097 220.684V241.044H271.242C273.837 246.295 277.141 251.479 281.374 256.212C301.749 278.997 334.815 281.811 336.212 281.92L344.009 282.525L344.275 274.71C344.308 273.757 344.72 258.118 338.583 241.043H403.79L401.587 270.94C395.546 277.015 390.91 283.742 387.471 289.832H212.087L178.345 249.161L166.822 258.722L192.631 289.832H119.168L117.37 265.437C118.64 265.484 119.879 265.511 121.054 265.511ZM85.6797 417.811C88.9699 409.929 95.3436 398.282 106.156 391.337C116.971 384.39 130.224 383.447 138.749 383.722C135.459 391.604 129.086 403.251 118.272 410.197C107.459 417.143 94.2176 418.094 85.6797 417.811ZM384.93 497.027H134.436L128.841 421.096C149.412 406.226 155.913 380.094 156.189 378.946L158.019 371.344L150.344 369.847C149.606 369.703 138.614 367.648 125.031 369.394L123.366 346.794H195.999V331.82H122.263L120.272 304.806H205.054L227.465 331.82H210.972V346.794H239.888L280.838 396.154C277.267 401.084 275.155 407.135 275.155 413.675C275.155 430.187 288.589 443.622 305.102 443.622C305.722 443.622 306.336 443.597 306.946 443.56H388.869L384.93 497.027ZM305.102 398.701C313.358 398.701 320.075 405.418 320.075 413.675C320.075 421.516 314.014 427.956 306.334 428.586H305.04V428.646C296.812 428.612 290.128 421.911 290.128 413.676C290.128 405.418 296.845 398.701 305.102 398.701ZM375.679 383.728V398.701H417.371C425.611 398.701 432.314 405.404 432.314 413.644C432.314 421.883 425.611 428.586 417.371 428.586H331.056C333.59 424.192 335.049 419.102 335.049 413.675C335.049 408.222 333.576 403.11 331.02 398.701H360.706V383.728H305.04V383.729C300.506 383.738 296.208 384.763 292.354 386.584L259.343 346.794H395.999L393.278 383.728H375.679ZM432.551 323.59C430.542 321.861 428.643 319.906 426.853 317.761C432.827 316.259 438.903 313.971 444.693 310.579C447.868 308.718 450.79 306.616 453.485 304.362C463.982 314.761 468.897 329.055 471.072 338.041C461.193 337.191 444.812 334.135 432.551 323.59Z" fill="#FAF4F0"/>
<path d="M181.087 428.648H196.061V443.622H181.087V428.648Z" fill="#FAF4F0"/>
<path d="M196.623 412.615H211.596V427.588H196.623V412.615Z" fill="#FAF4F0"/>
</svg>
