<svg width="512" height="512" viewBox="0 0 512 512" fill="none" xmlns="http://www.w3.org/2000/svg">
<g clip-path="url(#clip0_3_74)">
<path d="M94.4165 363.597H109.315V378.496H94.4165V363.597Z" fill="white"/>
<path d="M340.713 366.577C340.713 352.886 329.574 341.747 315.883 341.747H261.814C248.123 341.747 236.984 352.886 236.984 366.577C236.984 380.268 248.123 391.407 261.814 391.407H315.883C329.574 391.407 340.713 380.268 340.713 366.577ZM315.883 376.509H261.814C256.338 376.509 251.882 372.054 251.882 366.577C251.882 361.101 256.338 356.645 261.814 356.645H315.883C321.359 356.645 325.815 361.101 325.815 366.577C325.815 372.054 321.359 376.509 315.883 376.509Z" fill="white"/>
<path d="M496.784 55.4489L484.314 63.6032C492.68 76.3957 497.102 91.276 497.102 106.635C497.102 150.054 461.778 185.378 418.359 185.378C374.94 185.378 339.616 150.054 339.616 106.635C339.616 63.2168 374.94 27.8923 418.359 27.8923C440.404 27.8923 460.841 36.7676 475.903 52.8825L486.787 42.71C469.137 23.8251 444.197 12.9941 418.359 12.9941C373.639 12.9941 336.147 44.5067 326.906 86.4917H243.337V101.39H324.867C324.771 103.127 324.717 104.875 324.717 106.635C324.717 110.919 325.012 115.135 325.572 119.268H193.489V228.008H175.612V113.805C175.612 106.959 181.18 101.39 188.027 101.39H228.562V86.4917H188.027C172.967 86.4917 160.713 98.744 160.713 113.805V228.008H105.853L52.9183 272.222H0V287.12H58.3213L111.256 242.906H210.872C219.042 242.906 225.687 249.553 225.687 257.722C225.687 265.891 219.042 272.537 210.872 272.537H140.705V287.435H160.714V331.318C160.714 349.116 146.234 363.597 128.435 363.597H124.151V378.496H128.434C140.913 378.496 152.267 373.617 160.713 365.677V451.512H94.9787L56.8017 439.081H0V453.98H54.4379L92.6149 466.411H160.714V471.693C160.714 486.754 172.968 499.006 188.028 499.006H389.67C404.73 499.006 416.984 486.754 416.984 471.693V200.259C417.442 200.266 417.899 200.277 418.36 200.277C469.994 200.277 512.001 158.27 512.001 106.636C512 88.3719 506.738 70.6719 496.784 55.4489ZM402.084 471.693C402.084 478.539 396.515 484.108 389.669 484.108H188.027C181.18 484.108 175.612 478.539 175.612 471.693V466.411V458.962V331.318V312.447V287.435H193.489V437.426H317.827V422.528H208.387V287.435H210.871C227.255 287.435 240.584 274.106 240.584 257.722C240.584 241.338 227.255 228.008 210.871 228.008H208.387V134.166H328.849C335.598 156.065 350.18 174.559 369.308 186.37V422.528H332.166V437.426H384.207V193.828C389.916 196.072 395.896 197.769 402.083 198.858V471.693H402.084Z" fill="white"/>
<path d="M247.47 240.613C243.968 251.434 247.597 263.756 257.285 270.795C262.068 274.269 267.618 275.942 273.12 275.942C278.765 275.942 284.36 274.181 289.024 270.801C298.232 277.476 311.075 277.835 320.763 270.795C330.446 263.76 334.076 251.448 330.571 240.615C339.771 233.921 344.081 221.816 340.379 210.424C336.679 199.037 326.085 191.779 314.706 191.767C311.181 180.951 301 173.114 289.024 173.114C277.048 173.114 266.869 180.95 263.344 191.764C251.972 191.776 241.371 199.035 237.669 210.424C233.968 221.817 238.278 233.923 247.47 240.613ZM251.838 215.028C253.89 208.711 260.677 205.228 266.98 207.221L276.923 210.594V200.201L276.921 200.016C276.975 193.387 282.384 188.011 289.025 188.011C295.668 188.011 301.08 193.391 301.13 200.023L301.128 210.594L310.97 207.255L311.048 207.228C317.369 205.227 324.158 208.709 326.212 215.028C328.26 221.335 324.832 228.129 318.545 230.245L308.565 233.513L314.654 241.8L314.802 241.999C318.584 247.387 317.353 254.859 312.008 258.742C306.666 262.624 299.179 261.488 295.221 256.226L289.024 247.45L282.939 256.071L282.852 256.196C278.901 261.481 271.397 262.632 266.041 258.742C260.7 254.861 259.466 247.396 263.218 242.039L269.485 233.512L259.712 230.31L259.491 230.24C253.219 228.132 249.788 221.336 251.838 215.028Z" fill="white"/>
<path d="M258.235 453.979H317.827V468.878H258.235V453.979Z" fill="white"/>
<path d="M244.433 304.998H332.166V319.896H244.433V304.998Z" fill="white"/>
<path d="M228.562 156.016H258.297V170.915H228.562V156.016Z" fill="white"/>
<path d="M425.304 162.655V149.892C437.431 146.765 445.205 136.385 446.926 126.148C449.148 112.929 441.971 100.984 429.068 96.4228C421.598 93.7829 413.333 90.5877 408.65 86.9158C406.966 85.5958 406.249 82.7771 406.822 79.7359C407.39 76.7165 409.43 73.0585 413.448 71.8488C422.856 69.0152 428.951 74.167 429.205 74.3875L429.125 74.314L439.226 63.3638C438.903 63.0668 433.759 58.4325 425.304 56.7202V44.2803H410.406V57.2367C409.989 57.346 409.573 57.4562 409.15 57.5833C400.443 60.2054 393.941 67.6366 392.18 76.9758C390.564 85.5502 393.352 93.8504 399.454 98.6377C404.595 102.669 411.736 106.097 424.101 110.468C432.92 113.586 432.726 120.744 432.232 123.677C431.246 129.544 426.31 135.886 417.805 135.943C409.71 136.004 407.176 135.594 400.92 131.502L392.765 143.97C399.444 148.339 404.309 150.023 410.406 150.591V162.654L425.304 162.655Z" fill="white"/>
</g>
<defs>
<clipPath id="clip0_3_74">
<rect width="512" height="512" fill="white"/>
</clipPath>
</defs>
</svg>
