<svg width="512" height="512" viewBox="0 0 512 512" fill="none" xmlns="http://www.w3.org/2000/svg">
<path d="M349.423 343.974L341.971 308.717V282.383L432.046 143.748C444.814 140.065 455.038 134.086 462.467 125.948C488.802 97.101 476.501 44.9708 475.966 42.7666L474.776 37.8773L469.798 37.1372C468.922 37.0056 449.386 34.1869 428.225 38.0808C426.277 36.7423 424.2 35.5544 421.996 34.56C411.612 29.8722 399.789 29.4782 388.273 33.3341C382.6 29.553 374.194 26.7433 362.707 29.7415C353.061 22.9801 344.21 22.7796 337.594 24.4054C328.089 16.8162 316.836 13.1288 305.454 13.9696C304.183 14.0644 302.929 14.2229 301.688 14.4334L301.766 14.1751C279.015 7.29499 252.851 0 252.851 0L252.689 10.758C245.296 4.46736 235.377 1.29064 225.167 2.01974C213.803 2.82165 203.21 8.08494 194.903 16.9439C188.116 16.3085 179.384 17.8236 170.694 25.9165C158.995 24.5441 151.109 28.5666 146.057 33.1377C134.087 30.9673 122.427 33.0609 112.813 39.2058C108.579 41.9128 104.972 45.3359 102.127 49.2317C75.4494 38.2693 43.4987 42.971 42.0435 43.1945L37.0694 43.9575L35.9015 48.8527C35.3749 51.06 23.3083 103.245 49.7723 131.974C62.5929 145.89 81.6363 151.242 98.1234 153.026L138.087 214.379C132.589 236.97 135.763 259.324 135.977 260.751L136.719 265.728L141.609 266.916C142.664 267.172 155.378 270.173 171.412 270.172C172.398 270.172 173.397 270.159 174.406 270.135L182.387 282.387V309.305L175.007 344.218C165.27 348.469 154.43 351.698 142.488 353.842L135.126 355.164L143.584 402.282C143.584 402.282 161.445 398.823 163.575 398.308L146.778 477.777L150.592 480.641C152.297 481.92 192.897 511.998 239.737 511.998H246.402L248.732 491.866C253.357 492.025 271.125 492.025 275.751 491.866L278.08 511.998H284.745C331.585 511.998 372.185 481.92 373.891 480.641L377.705 477.777L360.879 398.173C363.185 398.736 381.408 402.282 381.408 402.282L389.866 355.164L382.504 353.842C370.332 351.657 359.302 348.347 349.423 343.974ZM291.473 88.5423C295.982 91.6891 302.098 95.3915 309.976 99.018C325.617 106.217 337.595 112.749 337.776 125.65C337.844 130.519 336.51 135.567 334.72 140.061C329.159 144.321 318.309 143.556 309.201 138.069C293.879 128.842 287.582 110.766 291.473 88.5423ZM328.042 48.377C329.744 58.6961 335.335 71.4419 350.002 82.2906L352.975 84.4909L353.121 84.449C357.025 87.3783 364.228 93.6949 365.568 101.231C359.456 102.901 353.525 105.512 348.62 109.746C341.565 97.102 326.886 90.3346 316.229 85.4294C315.4 85.0484 314.61 84.6664 313.828 84.2864C313.985 82.8471 314.186 81.4079 314.44 79.9786C316.642 67.5261 321.748 56.0759 328.042 48.377ZM388.202 57.0404C392.021 66.5775 393.143 80.0395 390.772 93.4615C390.517 94.9067 390.21 96.343 389.858 97.7633C389.047 97.8461 388.234 97.9298 387.386 97.9987C385.168 98.1802 382.789 98.3767 380.319 98.637C378.798 90.0873 373.575 83.0646 368.588 78.0925C376.087 73.6192 383.867 66.6932 388.202 57.0404ZM351.548 136.314C351.85 133.581 352.423 130.871 353.362 128.403C357.952 116.346 371.444 114.314 388.605 112.91C397.25 112.203 404.263 110.819 409.578 109.409C405.617 131.62 393.509 146.442 375.953 149.863C365.517 151.892 355.061 148.896 351.298 142.99C351.234 140.83 351.299 138.564 351.548 136.314ZM407.933 153.398L338.34 260.509C337.212 257.668 335.749 254.63 333.86 251.457C337.841 241.781 347.122 215.209 339.977 192.296C361.458 176.831 384.223 163.808 407.933 153.398ZM307.542 206.698H327.534C328.243 216.501 326.211 226.65 323.918 234.522L307.542 206.698ZM298.736 191.737L284.25 167.128C286.539 167.651 288.987 168.286 291.514 169.055C302.023 172.252 315.961 178.461 322.683 189.883C323.041 190.491 323.371 191.111 323.686 191.737H298.736ZM271.362 174.725L311.024 242.111C298.191 239.196 280.536 232.855 272.596 219.363C264.655 205.872 267.682 187.357 271.362 174.725ZM332.109 334.404C325.559 329.927 319.728 324.81 314.66 319.042C314.235 318.558 313.838 318.06 313.426 317.569H328.551L332.109 334.404ZM462.432 51.4051C463.255 56.2195 464.289 64.0132 464.32 72.908C464.366 86.0049 462.165 104.089 451.416 115.861C445.442 122.405 436.718 127.171 425.483 130.028C425.483 130.028 419.197 132.605 417.724 133.174C421.856 124.607 424.435 114.657 425.453 103.438C430.194 100.953 437.298 96.0707 441.593 87.6586C446.086 78.8615 446.469 68.5973 442.73 57.1511C442.095 55.2052 441.284 53.3251 440.326 51.5218C449.361 50.6949 457.455 51.0191 462.432 51.4051ZM415.841 48.1954C422.063 51.0031 426.563 55.8335 428.51 61.795C431.676 71.4927 430.7 79.0301 425.524 84.8409C424.134 86.4009 422.604 87.6397 421.183 88.6041L414.897 91.7888C414.843 91.8158 411.714 93.3657 405.686 94.9606C408.314 78.9214 407.028 59.7114 399.504 45.9922C405.232 45.2072 410.828 45.9333 415.841 48.1954ZM356.367 43.736L359.665 46.5358L363.736 45.0736C368.65 43.3112 372.858 42.993 376.465 44.1141C374.639 58.1106 362.055 65.1483 355.822 67.8063C343.084 56.823 342.06 44.6965 342.509 38.6782C347.054 38.0359 351.615 39.7016 356.367 43.736ZM306.564 28.8897C312.093 28.4718 317.646 29.7355 322.795 32.4864C312.959 41.0201 303.777 55.8256 299.932 76.2045C295.036 72.7794 292.674 70.3377 292.521 70.1752L287.3 64.4521C286.43 63.1744 285.579 61.6833 284.91 59.9987C282.038 52.7655 283.705 45.3488 290.001 37.3257C293.873 32.3926 299.755 29.3964 306.564 28.8897ZM267.516 19.6698C271.403 20.7868 276.36 22.2241 282.096 23.9157C280.702 25.2013 279.407 26.5937 278.233 28.0898C270.798 37.5611 267.642 47.3357 268.848 57.1401C270.001 66.5147 275.001 73.5354 278.604 77.4951C274.221 94.017 274.236 109.021 278.686 122.141C283.975 137.737 294.002 146.382 301.482 150.886C309.071 155.457 317.359 157.726 325.049 157.726C330.831 157.726 336.273 156.439 340.826 153.887C344.624 158.304 350.003 161.613 356.253 163.538C348.439 168.308 340.764 173.375 333.239 178.724C314.54 152.812 272.116 149.953 270.242 149.841L265.219 149.537L263.046 154.077C262.438 155.345 252.119 177.279 252.704 200.368C251.52 200.038 246.182 198.592 244.69 198.159C245.354 184.77 243.901 174.548 243.759 173.599L243.017 168.622L238.127 167.434C236.456 167.029 205.548 159.747 178.532 168.387C174.23 165.857 169.884 163.203 165.5 160.419C168.714 161.133 171.696 161.482 174.297 161.606C175.099 161.644 175.895 161.663 176.688 161.663C191.232 161.663 204.175 155.311 210.353 145.571C213.692 146.849 217.351 147.483 221.162 147.483C231.061 147.483 241.959 143.261 250.759 135.285L240.712 124.2C231.396 132.644 220.23 134.202 214.393 131.005C211.997 126.854 209.924 121.977 209.296 117.196C207.613 104.404 218.524 96.2123 232.963 86.8328C240.251 82.0981 245.777 77.543 249.787 73.7738C256.206 92.9728 252.809 106.301 248.338 114.491L261.47 121.66C270.672 104.805 270.436 83.4067 260.904 61.0041C263.897 56.5656 267.831 48.8986 267.62 39.4572C267.567 37.219 267.516 19.6698 267.516 19.6698ZM149.852 243.598C149.843 240.199 149.96 236.401 150.311 232.387C150.872 225.962 152.104 218.357 154.655 211.049H185.481L149.852 243.598ZM201.857 196.089H162.618C163.842 194.549 165.179 193.095 166.645 191.755C180.945 178.692 204.497 178.283 219.777 179.718L201.857 196.089ZM149.035 58.725C155.212 66.8379 165.985 75.5531 184.45 78.1993L188.112 78.7239L188.205 78.6331C193.036 79.3812 202.378 81.5545 207.13 87.492C202.548 91.8597 198.571 96.9703 196.265 103.021C184.054 95.2399 167.921 96.2492 156.213 96.9883C155.303 97.0461 154.427 97.085 153.558 97.121C153.012 95.7794 152.508 94.418 152.052 93.0406C148.072 81.0179 147.136 68.4965 149.035 58.725ZM206.089 37.8454C213.977 44.4282 221.353 55.7448 225.636 68.686C226.097 70.0784 226.509 71.4877 226.874 72.9041C226.199 73.3619 225.523 73.8207 224.808 74.2854C222.943 75.4973 220.941 76.7999 218.892 78.2012C213.496 71.397 205.564 67.6956 198.815 65.6859C203.294 58.1884 206.855 48.3989 206.089 37.8454ZM157.157 111.92C174.341 110.835 187.984 110.9 194.265 122.169C196.635 126.422 197.857 131.5 198.413 136.304C195.541 142.691 185.633 147.175 175.006 146.661C157.142 145.809 143.02 132.889 135.898 111.482C141.361 112.11 148.5 112.465 157.157 111.92ZM226.22 16.9429C233.026 16.4631 239.282 18.5786 243.825 22.9013C251.214 29.934 253.932 37.0325 252.135 44.6038C251.652 46.6375 250.893 48.4528 250.1 49.9768L246.079 55.7637C246.045 55.8126 244.025 58.6612 239.477 62.927C234.179 47.5621 223.93 31.2635 210.797 22.7597C215.465 19.3476 220.735 17.3298 226.22 16.9429ZM171.755 41.2425L175.985 42.1412L178.875 38.9226C182.363 35.0387 185.915 32.7606 189.623 32.0355C194.659 45.2232 186.923 57.3905 182.698 62.6887C166.274 59.0661 159.617 48.8777 157.156 43.368C160.851 40.6451 165.657 39.9489 171.755 41.2425ZM110.297 67.0962C111.363 60.9173 115.118 55.4884 120.871 51.812C125.543 48.8258 131.029 47.3018 136.864 47.2768C132.256 59.4571 131.202 76.8458 137.49 96.6063C131.539 95.9131 128.302 94.8818 128.103 94.816L120.711 92.2277C118.203 90.9141 115.406 88.9143 113.283 85.9211C109.955 81.2294 108.95 74.8969 110.297 67.0962ZM95.8992 62.8363C95.7715 63.4058 95.6528 63.9773 95.5541 64.5528C93.5064 76.4179 95.3656 86.5196 101.081 94.5776C106.544 102.282 114.278 106.088 119.329 107.864C120.903 114.431 122.964 120.467 125.514 125.942C125.447 126.882 125.37 127.793 125.289 128.681L59.2297 56.9736C69.5468 56.8648 83.5753 57.8922 95.8992 62.8363ZM48.2443 67.1301L78.6491 100.136H49.9618C47.201 88.6071 47.3925 76.3521 48.2443 67.1301ZM60.7757 121.838C58.8686 119.768 57.2349 117.498 55.8156 115.096H92.4312L114.272 138.805C98.5732 138.965 74.3224 136.541 60.7757 121.838ZM116.46 153.766C121.445 153.65 125.51 153.307 128.161 153.02C139.701 161.444 151.158 169.187 162.371 176.121C160.349 177.5 158.402 179.022 156.554 180.71C151.454 185.369 147.519 190.881 144.487 196.793L116.46 153.766ZM159.955 254.632L229.882 190.751C229.891 194.15 229.773 197.948 229.422 201.963C228.309 214.708 224.572 232.103 213.088 242.594C198.79 255.656 175.235 256.067 159.955 254.632ZM223.179 253.639C234.961 242.876 240.552 227.579 243.046 213.231C243.798 213.439 252.009 215.706 255.225 216.694C256.305 220.223 257.769 223.668 259.702 226.953C274.131 251.467 308.935 257.605 320.943 259.017C324.16 264.403 325.714 269.144 326.447 272.686H277.139V287.647H327.009V302.608H197.347V287.647H262.862V272.686H193.921L191.17 268.464C202.61 266.347 214.076 261.954 223.179 253.639ZM195.932 317.569H211.566C211.154 318.059 210.757 318.558 210.332 319.042C205.114 324.982 199.079 330.227 192.29 334.797L195.932 317.569ZM155.643 384.782L152.468 367.1C181.765 360.616 204.989 347.791 221.572 328.916C224.75 325.298 227.63 321.496 230.166 317.569H250.819C241.49 336.108 216.2 371.595 155.643 384.782ZM250.457 476.956L255.403 434.233L240.541 432.512L233.1 496.809C201.666 494.65 173.443 477.923 163.432 471.333L179.86 393.608C189.425 390.4 198.403 386.525 206.767 381.987L193.776 450.259L208.473 453.057L224.086 371.008C230.855 366.023 237.125 360.52 242.849 354.47C245.713 351.444 248.289 348.436 250.614 345.493L242.267 417.614L257.128 419.334L262.242 375.151L274.025 476.957C269.994 477.082 254.488 477.082 250.457 476.956ZM361.05 471.333C351.031 477.928 322.812 494.65 291.383 496.809L273.782 344.734C276.259 347.918 279.035 351.184 282.145 354.47C287.807 360.455 294.003 365.907 300.689 370.85L316.331 453.057L331.028 450.259L318.014 381.87C326.28 386.372 335.142 390.227 344.583 393.427L361.05 471.333ZM369.35 384.782C308.783 371.598 283.502 336.109 274.175 317.569H294.827C297.363 321.496 300.243 325.298 303.421 328.916C320.003 347.791 343.228 360.616 372.525 367.1L369.35 384.782Z" fill="#FAF4F0"/>
<path d="M465.003 191.244L459.999 191.78C458.575 191.932 425.02 195.773 413.319 217.957C401.619 240.143 417.401 270.005 418.078 271.264L420.461 275.696L425.465 275.159C426.887 275.008 460.443 271.168 472.144 248.982C483.844 226.796 468.063 196.935 467.385 195.675L465.003 191.244ZM458.911 242.004C453.479 252.305 438.402 257.453 429.03 259.427C425.353 250.597 421.091 235.295 426.553 224.938C431.986 214.638 447.062 209.488 456.434 207.515C460.111 216.343 464.373 231.647 458.911 242.004Z" fill="#FAF4F0"/>
<path d="M69.3593 237.081L64.4252 236.093L61.6494 240.29C60.8605 241.484 42.4325 269.789 52.0704 292.945C61.7092 316.101 94.7781 322.971 96.1814 323.252L101.116 324.24L103.891 320.043C104.68 318.849 123.108 290.544 113.47 267.388C103.831 244.232 70.7627 237.362 69.3593 237.081ZM94.046 307.254C84.8839 304.434 70.3547 297.938 65.8834 287.197C61.411 276.453 67.0433 261.562 71.4947 253.08C80.6569 255.9 95.186 262.396 99.6574 273.137C104.131 283.881 98.4984 298.773 94.046 307.254Z" fill="#FAF4F0"/>
<path d="M32.7188 174.878H47.6798V189.839H32.7188V174.878Z" fill="#FAF4F0"/>
<path d="M373.701 279.543H388.662V294.504H373.701V279.543Z" fill="#FAF4F0"/>
<path d="M136.329 309.465H151.29V324.426H136.329V309.465Z" fill="#FAF4F0"/>
</svg>
