<svg width="512" height="512" viewBox="0 0 512 512" fill="none" xmlns="http://www.w3.org/2000/svg">
<g clip-path="url(#clip0_3_40)">
<path d="M113.958 357.336C113.958 370.294 124.5 380.836 137.458 380.836C150.416 380.836 160.958 370.294 160.958 357.336C160.958 344.378 150.416 333.836 137.458 333.836C124.5 333.836 113.958 344.378 113.958 357.336ZM145.959 357.336C145.959 362.023 142.146 365.836 137.459 365.836C132.772 365.836 128.959 362.023 128.959 357.336C128.959 352.649 132.772 348.836 137.459 348.836C142.146 348.836 145.959 352.649 145.959 357.336Z" fill="#FAF4F0"/>
<path d="M427.638 375.019H512V316.32H495.515V256.019L418.856 236.087L395.876 182.869L382.105 188.815L402.015 234.923H382.483L348.57 149.586C348.145 148.515 348.547 147.668 348.825 147.259C349.103 146.849 349.741 146.163 350.893 146.163H363.692L376.015 174.71L389.786 168.764L375.09 134.731C366.627 113.12 346.18 99.162 322.959 99.162H136.125V114.162H322.958C336.448 114.162 348.654 120.6 356.217 131.163H350.892C345.086 131.163 339.673 134.031 336.412 138.835C333.152 143.64 332.485 149.729 334.629 155.126L372.301 249.924H412.461L450.591 259.838H438.5V304.838H480.515V316.32H447.544V333.836H425.306C416.44 314.95 397.248 301.835 375.041 301.835C352.834 301.835 333.642 314.95 324.776 333.836H256.174V249.924H337.88V288.338H352.88V240.988L315.314 146.458C311.702 137.166 302.927 131.163 292.959 131.163H241.175V333.836H187.742C186.781 331.781 185.699 329.778 184.484 327.843L171.783 335.823C175.825 342.256 177.961 349.695 177.961 357.336C177.961 379.669 159.792 397.837 137.46 397.837C115.128 397.837 96.959 379.668 96.959 357.336C96.959 335.004 115.128 316.835 137.46 316.835C146.921 316.835 156.125 320.165 163.377 326.211L172.982 314.69C163.04 306.4 150.424 301.835 137.46 301.835C115.254 301.835 96.061 314.95 87.195 333.836H64.956V316.32H31.137V114.162H121V99.162H16.137V316.32H0.5V375.018H84.862C87.827 383.813 92.934 391.627 99.568 397.837H0V412.837H512V397.837H412.932C419.566 391.628 424.673 383.814 427.638 375.019ZM453.5 289.838V274.838H480.515V289.838H453.5ZM292.959 146.163C296.693 146.163 299.98 148.413 301.355 151.946L334.33 234.924H256.175V146.163H292.959ZM49.956 360.019H15.5V331.32H49.956V360.019ZM64.956 360.019V348.836H82.608C82.18 351.608 81.957 354.447 81.957 357.336C81.957 358.235 81.983 359.129 82.025 360.018L64.956 360.019ZM462.544 331.32H497V360.018H462.544V331.32ZM447.544 348.836V360.019H430.475C430.518 359.13 430.543 358.236 430.543 357.337C430.543 354.447 430.319 351.608 429.892 348.837H447.544V348.836ZM320.191 348.836C319.763 351.608 319.54 354.447 319.54 357.336C319.54 358.235 319.566 359.129 319.608 360.018H192.892C192.935 359.129 192.96 358.235 192.96 357.336C192.96 354.474 192.733 351.634 192.302 348.836H320.191ZM175.349 397.838C181.983 391.628 187.09 383.814 190.055 375.019H322.445C325.41 383.814 330.517 391.628 337.151 397.838H175.349ZM334.54 357.336C334.54 335.003 352.709 316.835 375.041 316.835C397.373 316.835 415.542 335.004 415.542 357.336C415.542 379.668 397.373 397.837 375.041 397.837C352.709 397.837 334.54 379.669 334.54 357.336Z" fill="#FAF4F0"/>
<path d="M375.042 333.836C362.084 333.836 351.542 344.378 351.542 357.336C351.542 370.294 362.084 380.836 375.042 380.836C388 380.836 398.542 370.294 398.542 357.336C398.542 344.378 388 333.836 375.042 333.836ZM375.042 365.837C370.355 365.837 366.542 362.024 366.542 357.337C366.542 352.65 370.355 348.837 375.042 348.837C379.729 348.837 383.542 352.65 383.542 357.337C383.542 362.024 379.729 365.837 375.042 365.837Z" fill="#FAF4F0"/>
<path d="M226.07 196.497C229.662 189.448 230.294 181.421 227.848 173.896C225.404 166.371 220.175 160.249 213.124 156.657C208.676 154.391 203.841 153.304 199 153.419C195.33 141.229 184 132.326 170.63 132.326C157.254 132.326 145.92 141.239 142.254 153.438C133.656 153.243 125.388 156.854 119.649 163.175C114.899 159.951 109.238 158.154 103.324 158.154C90.2411 158.154 79.1461 166.839 75.5051 178.746C63.0121 178.532 51.3661 186.397 47.3241 198.84C43.2811 211.284 48.1121 224.519 58.3021 231.658C56.7601 236.113 56.3261 240.906 57.0841 245.693C58.2991 253.366 62.4301 260.106 68.7151 264.672C73.7381 268.321 79.6561 270.233 85.7481 270.233C87.2781 270.233 88.8191 270.112 90.3591 269.869C95.1481 269.11 99.5741 267.216 103.334 264.372C109.787 269.229 117.976 271.125 125.823 269.773C126.732 276.321 130.178 282.508 135.936 286.692C140.398 289.934 145.577 291.494 150.71 291.493C155.795 291.493 160.836 289.962 165.088 287.018C173.638 292.931 185.354 293.14 194.231 286.691C203.105 280.243 206.528 269.042 203.549 259.082C206.529 256.819 208.984 253.894 210.733 250.461C213.355 245.315 214.115 239.558 212.964 233.984C218.362 226.161 219.63 216.252 216.543 207.416C220.537 204.661 223.806 200.94 226.07 196.497ZM109.575 249.593L103.325 240.843L97.2221 249.387L97.0941 249.57C94.8851 252.529 91.6681 254.474 88.0131 255.053C84.3001 255.643 80.5751 254.748 77.5321 252.536C74.4891 250.325 72.4891 247.061 71.9001 243.346C71.3231 239.706 72.1701 236.059 74.2961 233.034L80.5881 224.329L70.5501 221.193C63.2171 218.761 59.2011 210.832 61.5921 203.475C63.9881 196.102 71.9261 192.047 79.2141 194.392L89.2461 197.632V187.332L89.2441 187.122C89.3061 179.409 95.6001 173.154 103.327 173.154C107.965 173.154 112.285 175.435 114.921 179.254C116.528 181.58 117.389 184.299 117.41 187.13L117.408 197.632L127.211 194.47L127.424 194.399C134.777 192.074 142.674 196.127 145.061 203.476C145.351 204.368 145.543 205.279 145.65 206.2C143.792 208.458 142.306 211.032 141.319 213.844C137.578 213.924 133.872 214.847 130.44 216.595C124.447 219.648 120.002 224.853 117.924 231.249C115.845 237.645 116.382 244.469 119.436 250.461C120.292 252.14 121.318 253.695 122.49 255.113C117.686 255.666 112.72 253.735 109.575 249.593ZM197.37 243.651C196.152 246.041 194.089 247.821 191.539 248.68L181.367 251.942L187.686 260.367L187.751 260.453C190.95 264.986 189.918 271.285 185.416 274.556C180.941 277.806 174.684 276.873 171.326 272.478L164.991 263.835L158.972 272.299L158.877 272.434C157.281 274.561 154.962 275.959 152.329 276.376C149.646 276.799 146.953 276.155 144.753 274.557C142.553 272.959 141.107 270.6 140.682 267.914C140.268 265.297 140.87 262.676 142.378 260.511L148.611 251.943L138.813 248.739L138.624 248.679C136.083 247.825 134.018 246.044 132.799 243.652C131.565 241.23 131.347 238.471 132.188 235.885C133.028 233.299 134.825 231.195 137.248 229.961C139.624 228.75 142.324 228.518 144.935 229.325L155.102 232.714L154.905 222.073C154.955 216.503 159.502 211.986 165.084 211.986C170.671 211.986 175.221 216.509 175.263 222.087L175.066 232.715L185.133 229.36L185.231 229.327C190.547 227.646 196.254 230.576 197.981 235.888C198.821 238.47 198.604 241.229 197.37 243.651ZM212.705 189.687C210.954 193.124 207.985 195.684 204.282 196.926L194.266 200.16L200.351 208.527L200.554 208.801L200.555 208.802C202.634 211.767 203.463 215.288 203.11 218.695C202.043 217.921 200.927 217.203 199.73 216.593C196.293 214.842 192.583 213.918 188.85 213.837C185.405 204.031 176.053 196.982 165.084 196.982C162.958 196.982 160.895 197.253 158.922 197.752C154.569 185.96 143.269 178.575 131.151 178.753C130.73 177.37 130.203 176.019 129.576 174.71C133.141 169.575 139.76 167.162 146.018 169.117L156.013 172.449V162.043L156.011 161.833C156.072 153.823 162.607 147.325 170.632 147.325C178.66 147.325 185.197 153.827 185.253 161.842L185.251 172.449L195.123 169.158L195.246 169.116C198.935 167.942 202.864 168.262 206.317 170.021C209.797 171.794 212.378 174.816 213.585 178.53C214.792 182.244 214.478 186.208 212.705 189.687Z" fill="#FAF4F0"/>
<path d="M96.063 207.65H110.73V222.65H96.063V207.65Z" fill="#FAF4F0"/>
<path d="M261.796 264.016H290.888V279.016H261.796V264.016Z" fill="#FAF4F0"/>
<path d="M61 131.163H76V146.163H61V131.163Z" fill="#FAF4F0"/>
<path d="M88.563 280.838H103.563V295.838H88.563V280.838Z" fill="#FAF4F0"/>
</g>
<defs>
<clipPath id="clip0_3_40">
<rect width="512" height="512" fill="white"/>
</clipPath>
</defs>
</svg>
