<svg width="512" height="512" viewBox="0 0 512 512" fill="none" xmlns="http://www.w3.org/2000/svg">
<g clip-path="url(#clip0_3_8)">
<path d="M438.542 214.477H344.595V375.947H438.542V214.477ZM423.55 284.218H399.064V229.469H423.55V284.218ZM384.073 229.469V284.218H359.587V229.469H384.073ZM359.587 299.21H384.073V360.956H359.587V299.21ZM399.064 360.956V299.21H423.55V360.956H399.064Z" fill="#FAF4F0"/>
<path d="M438.542 145.079H344.595V196.984H438.542V145.079ZM423.55 181.993H359.587V160.07H423.55V181.993Z" fill="#FAF4F0"/>
<path d="M343.596 451.842H439.603V395.874H343.596V451.842ZM358.587 410.866H424.612V436.851H358.587V410.866Z" fill="#FAF4F0"/>
<path d="M512 129.088V39.2017H381.842C372.343 30.0159 335.754 0.661621 256.145 0.661621C228.929 0.661621 203.885 4.29855 181.71 11.4715L186.323 25.7344C203.85 20.0656 223.4 16.7735 244.564 15.899C239.386 18.8433 235.351 23.5756 233.338 29.2654C223.081 29.5332 213.618 36.1724 210.27 46.4726C206.923 56.7737 210.676 67.7075 218.819 73.953C215.903 83.7914 219.293 94.8421 228.056 101.209C232.469 104.416 237.589 105.958 242.667 105.958C247.672 105.958 252.635 104.458 256.833 101.571C265.287 107.383 276.847 107.575 285.61 101.208C294.372 94.8421 297.762 83.7924 294.846 73.953C302.988 67.7075 306.742 56.7737 303.395 46.4726C300.045 36.1654 290.575 29.5242 280.325 29.2604C278.322 23.6056 274.322 18.8963 269.188 15.9489C344.173 19.334 372.668 51.2279 372.936 51.5367L375.182 54.1942H497.008V114.098H15.4692V54.1932H133.63L136.936 54.1662L139.162 51.7546C139.265 51.6436 149.638 40.5819 172.634 30.8265L166.779 17.0253C146.972 25.4275 135.335 34.8302 130.579 39.2007H0.477728V129.088H10.2852V404.153C10.0523 405.044 9.8554 405.95 9.6835 406.867H0L9.99432 466.833H0.290835V511.338H512V466.833H502.006V129.088H512ZM276.531 44.7706L276.741 44.7016C281.915 43.0835 287.458 45.9379 289.136 51.104C290.816 56.274 288.004 61.8448 282.863 63.5729L272.771 66.87L278.993 75.2312L279.075 75.3402C282.189 79.7577 281.182 85.8932 276.797 89.0794C272.423 92.2586 266.301 91.3321 263.051 87.0365L256.832 78.2895L250.723 86.8806L250.633 87.0095C247.391 91.3291 241.251 92.2645 236.868 89.0804C232.49 85.8982 231.478 79.7797 234.571 75.3672L240.894 66.871L230.988 63.6318L230.795 63.5709C225.659 61.8399 222.851 56.272 224.529 51.1049C226.206 45.9429 231.74 43.0905 236.938 44.7066L246.915 47.9008V37.6316L246.914 37.4417C246.976 32.0238 251.402 27.6353 256.834 27.6353C262.269 27.6353 266.697 32.0288 266.754 37.4497L266.753 47.9018L276.531 44.7706ZM311.614 129.088V466.834H127.572L130.071 451.842H293.624V395.874H124.068C119.706 387.604 112.515 381.408 103.986 378.946H293.623V306.487H278.632V363.954H255.745L265.739 323.852H253.647V313.046C253.647 296.479 240.168 283.001 223.601 283.001C207.033 283.001 193.556 296.479 193.556 313.046V323.852H181.464L191.458 363.954H158.701V318.918H149.493L164.583 294.429L151.82 286.564L131.883 318.918H128.583V281.501H113.591V318.918H110.357L92.2725 286.817L79.212 294.175L93.1511 318.917H83.7434V363.759C79.138 361.429 74.0599 360.164 68.7829 360.164C63.5289 360.164 58.4738 361.419 53.8854 363.729V268.008H278.633V290.995H293.624V144.078H38.8939V377.835C38.8759 377.864 38.8559 377.892 38.8379 377.921C33.9267 378.413 29.3283 380.124 25.2766 382.768V129.088H311.614ZM278.633 410.865V436.851H132.57L136.9 410.865H278.633ZM143.709 333.909V363.954H98.7349V333.909H143.709ZM200.651 338.843H246.553L240.294 363.954H206.909L200.651 338.843ZM238.655 323.852H208.547V313.046C208.547 304.745 215.301 297.993 223.601 297.993C231.902 297.993 238.655 304.746 238.655 313.046V323.852ZM278.633 253.017H260.331V207.981H246.332C247.743 202.481 252.441 194.409 267.231 188.919L262.014 174.865C240.238 182.947 232.666 197.332 231.087 207.981H230.212V170.564H215.221V207.981H214.288C213.943 205.571 213.29 202.793 212.086 199.822C208.97 192.134 201.466 181.563 183.418 174.864L178.201 188.918C192.991 194.408 197.689 202.48 199.1 207.98H185.372V253.016H145.93L155.924 212.914H143.832V202.108C143.832 185.541 130.354 172.063 113.786 172.063C97.2187 172.063 83.7414 185.542 83.7414 202.108V212.914H71.6513L81.6456 253.016H53.8854V159.07H278.633V253.017ZM200.364 222.972H245.339V253.017H200.364V222.972ZM90.8384 227.906H136.74L130.482 253.017H97.0958L90.8384 227.906ZM128.843 212.915H98.7349V202.109C98.7349 193.808 105.488 187.056 113.788 187.056C122.09 187.056 128.843 193.809 128.843 202.109V212.915ZM41.7982 392.766C42.153 392.766 42.5048 392.785 42.8546 392.81L48.0527 393.185L50.2145 388.442C53.9493 380.248 61.0643 375.157 68.7839 375.157C76.5035 375.157 83.6175 380.248 87.3533 388.442L89.5151 393.185L94.7132 392.81C95.063 392.785 95.4138 392.766 95.7696 392.766C103.423 392.766 109.966 398.642 112.486 406.868H25.0817C27.6023 398.642 34.1446 392.766 41.7982 392.766ZM17.6969 421.859H119.869L112.373 466.834H25.1927L17.6969 421.859ZM497.008 496.348H15.2823V481.825H497.008V496.348ZM487.014 466.834H471.523V361.456H456.531V466.834H326.605V129.088H456.531V346.402H471.523V129.088H487.014V466.834Z" fill="#FAF4F0"/>
<path d="M129.288 62.4405L124.374 65.5987L126.236 71.1356C126.629 72.3039 136.111 99.8373 158.288 107.624C162.706 109.175 167.221 109.8 171.628 109.8C189.336 109.8 205.283 99.7153 206.114 99.1816L211.028 96.0234L209.166 90.4866C208.773 89.3183 199.292 61.7849 177.115 53.9993C154.935 46.2128 130.324 61.7749 129.288 62.4405ZM192.484 89.5121C185.593 92.7603 173.489 97.0728 163.252 93.4779C153.02 89.8859 146.271 78.9641 142.924 72.125C149.833 68.8879 161.981 64.5713 172.147 68.1433C182.385 71.7382 189.137 82.67 192.484 89.5121Z" fill="#FAF4F0"/>
<path d="M353.509 107.624C375.685 99.8373 385.168 72.3039 385.561 71.1356L387.423 65.5987L382.509 62.4405C381.472 61.7739 356.857 46.2137 334.683 53.9983C312.506 61.7849 303.024 89.3172 302.631 90.4856L300.769 96.0224L305.683 99.1806C306.514 99.7143 322.46 109.799 340.169 109.799C344.574 109.799 349.092 109.174 353.509 107.624ZM339.648 68.1443C349.881 64.5503 361.975 68.8569 368.862 72.101C365.494 78.9471 358.711 89.9089 348.543 93.4789C338.314 97.0708 326.221 92.7683 319.329 89.5211C322.697 82.675 329.48 71.7132 339.648 68.1443Z" fill="#FAF4F0"/>
<path d="M91.364 76.1177H106.231V91.1092H91.364V76.1177Z" fill="#FAF4F0"/>
<path d="M406.185 76.1177H421.052V91.1092H406.185V76.1177Z" fill="#FAF4F0"/>
</g>
<defs>
<clipPath id="clip0_3_8">
<rect width="512" height="512" fill="white"/>
</clipPath>
</defs>
</svg>
